<svg version="1.1"
     baseProfile="full"
     width="80" height="40"
     xmlns="http://www.w3.org/2000/svg">
      <line x1="-4" y1="16.909830056250527" x2="0" y2="20" style="stroke:red;stroke-width:1"></line><line x1="0" y1="20" x2="4" y2="23.090169943749473" style="stroke:red;stroke-width:1"></line><line x1="4" y1="23.090169943749473" x2="8" y2="25.877852522924734" style="stroke:red;stroke-width:1"></line><line x1="8" y1="25.877852522924734" x2="12" y2="28.090169943749473" style="stroke:red;stroke-width:1"></line><line x1="12" y1="28.090169943749473" x2="16" y2="29.510565162951536" style="stroke:red;stroke-width:1"></line><line x1="16" y1="29.510565162951536" x2="20" y2="30" style="stroke:red;stroke-width:1"></line><line x1="20" y1="30" x2="24" y2="29.510565162951536" style="stroke:red;stroke-width:1"></line><line x1="24" y1="29.510565162951536" x2="28" y2="28.090169943749473" style="stroke:red;stroke-width:1"></line><line x1="28" y1="28.090169943749473" x2="32" y2="25.877852522924734" style="stroke:red;stroke-width:1"></line><line x1="32" y1="25.877852522924734" x2="36" y2="23.090169943749476" style="stroke:red;stroke-width:1"></line><line x1="36" y1="23.090169943749476" x2="40" y2="20" style="stroke:red;stroke-width:1"></line><line x1="40" y1="20" x2="44" y2="16.909830056250527" style="stroke:red;stroke-width:1"></line><line x1="44" y1="16.909830056250527" x2="48" y2="14.12214747707527" style="stroke:red;stroke-width:1"></line><line x1="48" y1="14.12214747707527" x2="52" y2="11.909830056250527" style="stroke:red;stroke-width:1"></line><line x1="52" y1="11.909830056250527" x2="56" y2="10.489434837048465" style="stroke:red;stroke-width:1"></line><line x1="56" y1="10.489434837048465" x2="60" y2="10" style="stroke:red;stroke-width:1"></line><line x1="60" y1="10" x2="64" y2="10.489434837048464" style="stroke:red;stroke-width:1"></line><line x1="64" y1="10.489434837048464" x2="68" y2="11.909830056250524" style="stroke:red;stroke-width:1"></line><line x1="68" y1="11.909830056250524" x2="72" y2="14.122147477075266" style="stroke:red;stroke-width:1"></line><line x1="72" y1="14.122147477075266" x2="76" y2="16.909830056250524" style="stroke:red;stroke-width:1"></line><line x1="76" y1="16.909830056250524" x2="80" y2="19.999999999999996" style="stroke:red;stroke-width:1"></line> 
</svg>