<svg version="1.1"
     baseProfile="full"
     width="80" height="40"
     xmlns="http://www.w3.org/2000/svg">
      <line x1="-4" y1="15.36474508437579" x2="0" y2="20" style="stroke:red;stroke-width:1"></line><line x1="0" y1="20" x2="4" y2="24.63525491562421" style="stroke:red;stroke-width:1"></line><line x1="4" y1="24.63525491562421" x2="8" y2="28.816778784387097" style="stroke:red;stroke-width:1"></line><line x1="8" y1="28.816778784387097" x2="12" y2="32.135254915624216" style="stroke:red;stroke-width:1"></line><line x1="12" y1="32.135254915624216" x2="16" y2="34.265847744427305" style="stroke:red;stroke-width:1"></line><line x1="16" y1="34.265847744427305" x2="20" y2="35" style="stroke:red;stroke-width:1"></line><line x1="20" y1="35" x2="24" y2="34.265847744427305" style="stroke:red;stroke-width:1"></line><line x1="24" y1="34.265847744427305" x2="28" y2="32.135254915624216" style="stroke:red;stroke-width:1"></line><line x1="28" y1="32.135254915624216" x2="32" y2="28.816778784387097" style="stroke:red;stroke-width:1"></line><line x1="32" y1="28.816778784387097" x2="36" y2="24.635254915624213" style="stroke:red;stroke-width:1"></line><line x1="36" y1="24.635254915624213" x2="40" y2="20.000000000000004" style="stroke:red;stroke-width:1"></line><line x1="40" y1="20.000000000000004" x2="44" y2="15.364745084375791" style="stroke:red;stroke-width:1"></line><line x1="44" y1="15.364745084375791" x2="48" y2="11.183221215612905" style="stroke:red;stroke-width:1"></line><line x1="48" y1="11.183221215612905" x2="52" y2="7.864745084375789" style="stroke:red;stroke-width:1"></line><line x1="52" y1="7.864745084375789" x2="56" y2="5.734152255572697" style="stroke:red;stroke-width:1"></line><line x1="56" y1="5.734152255572697" x2="60" y2="5" style="stroke:red;stroke-width:1"></line><line x1="60" y1="5" x2="64" y2="5.734152255572695" style="stroke:red;stroke-width:1"></line><line x1="64" y1="5.734152255572695" x2="68" y2="7.864745084375787" style="stroke:red;stroke-width:1"></line><line x1="68" y1="7.864745084375787" x2="72" y2="11.1832212156129" style="stroke:red;stroke-width:1"></line><line x1="72" y1="11.1832212156129" x2="76" y2="15.364745084375786" style="stroke:red;stroke-width:1"></line><line x1="76" y1="15.364745084375786" x2="80" y2="19.999999999999996" style="stroke:red;stroke-width:1"></line>	 
</svg>