<svg version="1.1"
     baseProfile="full"
     width="80" height="40"
     xmlns="http://www.w3.org/2000/svg">
      <line x1="-4" y1="18.454915028125264" x2="0" y2="20" style="stroke:red;stroke-width:1"></line><line x1="0" y1="20" x2="4" y2="21.545084971874736" style="stroke:red;stroke-width:1"></line><line x1="4" y1="21.545084971874736" x2="8" y2="22.938926261462367" style="stroke:red;stroke-width:1"></line><line x1="8" y1="22.938926261462367" x2="12" y2="24.045084971874736" style="stroke:red;stroke-width:1"></line><line x1="12" y1="24.045084971874736" x2="16" y2="24.755282581475768" style="stroke:red;stroke-width:1"></line><line x1="16" y1="24.755282581475768" x2="20" y2="25" style="stroke:red;stroke-width:1"></line><line x1="20" y1="25" x2="24" y2="24.755282581475768" style="stroke:red;stroke-width:1"></line><line x1="24" y1="24.755282581475768" x2="28" y2="24.045084971874736" style="stroke:red;stroke-width:1"></line><line x1="28" y1="24.045084971874736" x2="32" y2="22.938926261462367" style="stroke:red;stroke-width:1"></line><line x1="32" y1="22.938926261462367" x2="36" y2="21.545084971874736" style="stroke:red;stroke-width:1"></line><line x1="36" y1="21.545084971874736" x2="40" y2="20" style="stroke:red;stroke-width:1"></line><line x1="40" y1="20" x2="44" y2="18.454915028125264" style="stroke:red;stroke-width:1"></line><line x1="44" y1="18.454915028125264" x2="48" y2="17.061073738537637" style="stroke:red;stroke-width:1"></line><line x1="48" y1="17.061073738537637" x2="52" y2="15.954915028125264" style="stroke:red;stroke-width:1"></line><line x1="52" y1="15.954915028125264" x2="56" y2="15.244717418524232" style="stroke:red;stroke-width:1"></line><line x1="56" y1="15.244717418524232" x2="60" y2="15" style="stroke:red;stroke-width:1"></line><line x1="60" y1="15" x2="64" y2="15.244717418524232" style="stroke:red;stroke-width:1"></line><line x1="64" y1="15.244717418524232" x2="68" y2="15.954915028125262" style="stroke:red;stroke-width:1"></line><line x1="68" y1="15.954915028125262" x2="72" y2="17.061073738537633" style="stroke:red;stroke-width:1"></line><line x1="72" y1="17.061073738537633" x2="76" y2="18.454915028125264" style="stroke:red;stroke-width:1"></line><line x1="76" y1="18.454915028125264" x2="80" y2="20" style="stroke:red;stroke-width:1"></line>
</svg>