<svg version="1.1"
     baseProfile="full"
     width="80" height="40"
     xmlns="http://www.w3.org/2000/svg">
	 <line x1="-4" y1="13.819660112501051" x2="0" y2="20" style="stroke:red;stroke-width:2"></line><line x1="0" y1="20" x2="4" y2="26.18033988749895" style="stroke:red;stroke-width:2"></line><line x1="4" y1="26.18033988749895" x2="8" y2="31.755705045849464" style="stroke:red;stroke-width:2"></line><line x1="8" y1="31.755705045849464" x2="12" y2="36.180339887498945" style="stroke:red;stroke-width:2"></line><line x1="12" y1="36.180339887498945" x2="16" y2="39.02113032590307" style="stroke:red;stroke-width:2"></line><line x1="16" y1="39.02113032590307" x2="20" y2="40" style="stroke:red;stroke-width:2"></line><line x1="20" y1="40" x2="24" y2="39.02113032590307" style="stroke:red;stroke-width:2"></line><line x1="24" y1="39.02113032590307" x2="28" y2="36.180339887498945" style="stroke:red;stroke-width:2"></line><line x1="28" y1="36.180339887498945" x2="32" y2="31.755705045849467" style="stroke:red;stroke-width:2"></line><line x1="32" y1="31.755705045849467" x2="36" y2="26.18033988749895" style="stroke:red;stroke-width:2"></line><line x1="36" y1="26.18033988749895" x2="40" y2="20.000000000000004" style="stroke:red;stroke-width:2"></line><line x1="40" y1="20.000000000000004" x2="44" y2="13.819660112501055" style="stroke:red;stroke-width:2"></line><line x1="44" y1="13.819660112501055" x2="48" y2="8.24429495415054" style="stroke:red;stroke-width:2"></line><line x1="48" y1="8.24429495415054" x2="52" y2="3.8196601125010545" style="stroke:red;stroke-width:2"></line><line x1="52" y1="3.8196601125010545" x2="56" y2="0.9788696740969307" style="stroke:red;stroke-width:2"></line><line x1="56" y1="0.9788696740969307" x2="60" y2="0" style="stroke:red;stroke-width:2"></line><line x1="60" y1="0" x2="64" y2="0.9788696740969272" style="stroke:red;stroke-width:2"></line><line x1="64" y1="0.9788696740969272" x2="68" y2="3.8196601125010474" style="stroke:red;stroke-width:2"></line><line x1="68" y1="3.8196601125010474" x2="72" y2="8.244294954150533" style="stroke:red;stroke-width:2"></line><line x1="72" y1="8.244294954150533" x2="76" y2="13.819660112501047" style="stroke:red;stroke-width:2"></line><line x1="76" y1="13.819660112501047" x2="80" y2="19.999999999999996" style="stroke:red;stroke-width:2"></line>	 
</svg>